<svg width="23" height="19" viewBox="0 0 23 19" fill="none" xmlns="http://www.w3.org/2000/svg">
<circle opacity="0.1" cx="11.3377" cy="12.0353" r="6.56471" fill="#FE8C00"/>
<circle cx="4.03179" cy="7.05883" r="0.423529" fill="#B468FF"/>
<circle cx="12.0259" cy="2.45295" r="0.9" fill="#B468FF"/>
<circle cx="20.1259" cy="10.8706" r="0.847059" fill="#FE8C00"/>
<path d="M16.42 1.34119L16.6404 1.96783L17.2671 2.18825L16.6404 2.40866L16.42 3.0353L16.1996 2.40866L15.573 2.18825L16.1996 1.96783L16.42 1.34119Z" fill="#FB46FF"/>
<path d="M3.3598 9.12677C3.3598 9.12677 3.18548 9.8305 2.35985 9.8608C1.80943 9.881 1.67994 9.31058 1.03696 9.69671C0.750614 9.86867 0.537674 10.3911 0.537674 10.3911" stroke="#FB46FF" stroke-width="0.317647" stroke-linecap="round"/>
<path d="M3.6612 13.2L3.96701 14.006L4.77297 14.3118L3.96701 14.6176L3.6612 15.4235L3.3554 14.6176L2.54944 14.3118L3.3554 14.006L3.6612 13.2Z" fill="#FE8C00"/>
<circle cx="11.02" cy="1.12941" r="0.211765" fill="#FB46FF"/>
<path d="M4.38376 1.21012C4.48785 2.11499 6.59063 3.01689 6.63748 2.27657C6.71172 1.10344 3.87582 2.01812 7.7448 3.55542" stroke="#FE8C00" stroke-width="0.317647" stroke-linecap="round"/>
<path d="M19.9142 14.9799C20.4398 14.9053 21.5858 15.031 21.965 16.1304" stroke="#B468FF" stroke-width="0.317647" stroke-linecap="round"/>
<path d="M19.3931 4.7683C19.3931 4.7683 20.1616 5.15929 20.4838 4.80887C20.7776 4.48922 20.4378 3.99035 20.7933 3.74107C21.0826 3.53823 21.6953 3.67183 21.6953 3.67183" stroke="#FE8C00" stroke-width="0.317647" stroke-linecap="round"/>
<rect x="19.0671" y="8.64706" width="0.741176" height="0.741176" rx="0.211765" fill="#FE8C00"/>
<path d="M10.5273 7.53528C11.0462 7.32035 11.6292 7.32035 12.1481 7.53528L13.9466 8.28027C14.4655 8.4952 14.8778 8.90745 15.0927 9.42634L15.8377 11.2249C16.0526 11.7438 16.0526 12.3268 15.8377 12.8457L15.0927 14.6443C14.8778 15.1631 14.4655 15.5754 13.9466 15.7903L12.1481 16.5353C11.6292 16.7502 11.0462 16.7502 10.5273 16.5353L8.72872 15.7903C8.20984 15.5754 7.79758 15.1631 7.58266 14.6443L6.83766 12.8457C6.62273 12.3268 6.62273 11.7438 6.83766 11.2249L7.58266 9.42634C7.79758 8.90745 8.20984 8.4952 8.72872 8.28027L10.5273 7.53528Z" fill="#F5F5FF" stroke="#FE8C00" stroke-width="0.847059"/>
<path fill-rule="evenodd" clip-rule="evenodd" d="M12.5956 10.752C12.6549 10.6932 12.7349 10.6602 12.8183 10.6599C12.9018 10.6597 12.982 10.6923 13.0416 10.7508C13.1012 10.8092 13.1354 10.8887 13.1368 10.9722C13.1382 11.0556 13.1068 11.1363 13.0492 11.1967L11.3584 13.3101C11.3294 13.3414 11.2943 13.3665 11.2553 13.384C11.2163 13.4014 11.1742 13.4108 11.1315 13.4116C11.0888 13.4124 11.0464 13.4045 11.0068 13.3886C10.9672 13.3726 10.9312 13.3488 10.901 13.3186L9.7808 12.1979C9.74959 12.1688 9.72456 12.1338 9.7072 12.0948C9.68984 12.0558 9.6805 12.0138 9.67975 11.9711C9.679 11.9285 9.68685 11.8861 9.70282 11.8466C9.7188 11.807 9.74258 11.7711 9.77274 11.7409C9.8029 11.7108 9.83883 11.687 9.87839 11.671C9.91794 11.655 9.9603 11.6472 10.003 11.6479C10.0456 11.6487 10.0877 11.658 10.1266 11.6754C10.1656 11.6927 10.2007 11.7178 10.2297 11.749L11.1166 12.6354L12.5875 10.7613C12.5902 10.758 12.593 10.7549 12.596 10.752H12.5956Z" fill="#FE8C00"/>
</svg>
