<?xml version="1.0" encoding="UTF-8"?>
<svg version="1.1" xmlns="http://www.w3.org/2000/svg" width="768" height="895">
<path d="M0 0 C253.44 0 506.88 0 768 0 C768 295.35 768 590.7 768 895 C514.56 895 261.12 895 0 895 C0 599.65 0 304.3 0 0 Z " fill="#000000" transform="translate(0,0)"/>
<path d="M0 0 C253.44 0 506.88 0 768 0 C768 295.35 768 590.7 768 895 C514.56 895 261.12 895 0 895 C0 599.65 0 304.3 0 0 Z M455.76538086 234.29418945 C443.98380228 238.42418149 432.10174944 241.939043 420 245 C419.13117188 245.22445801 418.26234375 245.44891602 417.3671875 245.68017578 C396.48322255 250.94561818 376.68034873 250.09332689 355.91503906 244.74853516 C352.93685966 243.98378657 349.95105717 243.25950177 346.9609375 242.54296875 C337.31093331 240.20960099 327.72628007 237.69017756 318.1875 234.9375 C317.3224585 234.68822754 316.45741699 234.43895508 315.56616211 234.18212891 C314.71417236 233.93640137 313.86218262 233.69067383 312.984375 233.4375 C312.14841797 233.19644531 311.31246094 232.95539063 310.45117188 232.70703125 C308.86620284 232.24985293 307.28154515 231.79159325 305.69726562 231.33203125 C291.00385956 227.11199295 276.08441005 224.42156187 261 222 C260.18772949 221.86432617 259.37545898 221.72865234 258.53857422 221.58886719 C215.17499649 214.551578 166.87255042 222.16337937 130.67578125 247.98828125 C129.79277344 248.65214844 128.90976563 249.31601563 128 250 C126.96230469 250.75667969 125.92460938 251.51335937 124.85546875 252.29296875 C116.71997713 258.3131114 109.30093905 265.00337241 102 272 C101.24847656 272.71027344 100.49695313 273.42054688 99.72265625 274.15234375 C84.88620868 288.51872566 73.34058627 306.24695387 63 324 C62.64341309 324.60183105 62.28682617 325.20366211 61.91943359 325.82373047 C35.17508707 371.31911078 26.7530626 426.79216314 26.8125 478.8125 C26.81277191 479.71152039 26.81304382 480.61054077 26.81332397 481.5368042 C26.83397631 496.44514894 27.37057277 511.16940724 29 526 C29.09651855 526.92167969 29.19303711 527.84335937 29.29248047 528.79296875 C37.98323565 609.73543736 69.7957134 685.9697317 112 755 C112.54930176 755.90250488 113.09860352 756.80500977 113.66455078 757.73486328 C120.89339001 769.56696208 128.68166274 780.90800813 137 792 C137.4729248 792.63276855 137.94584961 793.26553711 138.43310547 793.91748047 C144.52429936 802.01528705 151.0896309 809.5187489 158.05859375 816.87109375 C160.38897873 819.33098545 162.62369754 821.84982693 164.8125 824.4375 C168.23098845 828.36917558 171.98448775 831.68862971 176 835 C176.52094238 835.43860352 177.04188477 835.87720703 177.57861328 836.32910156 C202.90139287 857.60336708 230.37091903 870.28274382 264 868 C279.62563925 866.13236521 294.38501997 861.66734205 309 856 C326.46286173 849.23934826 343.80085244 842.55490476 362 838 C362.75120117 837.80937988 363.50240234 837.61875977 364.27636719 837.42236328 C390.43896819 831.10746028 416.56376186 834.88753323 442 842 C442.86351074 842.23992676 443.72702148 842.47985352 444.61669922 842.72705078 C450.14132281 844.30264841 455.56752653 846.13484187 461 848 C522.1899951 869.12903732 522.1899951 869.12903732 584 856 C599.01628313 848.34935312 611.91309606 837.62834293 624 826 C624.54188965 825.48002441 625.0837793 824.96004883 625.64208984 824.42431641 C632.97809709 817.34384498 639.71562028 810.04532675 646 802 C646.85680573 800.93257536 647.71493728 799.86621392 648.57421875 798.80078125 C678.29636722 761.75927911 733 690.64402648 733 640 C732.030625 639.67128906 731.06125 639.34257813 730.0625 639.00390625 C701.9685311 629.16960111 678.86497387 610.69843472 661 587 C660.60506348 586.47615723 660.21012695 585.95231445 659.80322266 585.41259766 C633.3097179 549.99496499 618.45802621 508.64657766 618.6875 464.25 C618.69023422 463.14131058 618.69023422 463.14131058 618.69302368 462.01022339 C618.7421199 450.13389709 619.38730945 438.61560778 622 427 C622.17692383 426.2064209 622.35384766 425.4128418 622.53613281 424.59521484 C629.83377529 392.86496452 644.87148883 364.19217994 666.93359375 340.25 C668.75613486 338.2655318 670.50783558 336.24214108 672.25 334.1875 C679.21603234 326.19848389 686.86952386 318.62831235 694.9453125 311.765625 C697.67816939 309.41723847 700.33816405 306.99056617 703 304.5625 C704.423125 303.26505859 704.423125 303.26505859 705.875 301.94140625 C706.57625 301.30074219 707.2775 300.66007812 708 300 C707.54727795 295.60964897 704.60469851 293.08420874 701.6875 290.0625 C700.5920938 288.90528301 699.49705221 287.7477208 698.40234375 286.58984375 C697.8388623 285.99800293 697.27538086 285.40616211 696.69482422 284.79638672 C695.04751985 283.05036748 693.42753278 281.28330711 691.81640625 279.50390625 C686.49282093 273.62707899 681.11346412 268.06512641 675 263 C674.05898438 262.17113281 673.11796875 261.34226562 672.1484375 260.48828125 C649.34162742 240.47428645 621.64900499 226.42883818 592 220 C591.10941895 219.80245117 590.21883789 219.60490234 589.30126953 219.40136719 C543.74483166 209.6841448 498.97456265 219.06568917 455.76538086 234.29418945 Z " fill="#FEFEFE" transform="translate(0,0)"/>
<path d="M0 0 C2.4523837 6.68298986 2.34467505 13.1889961 2.3125 20.25 C2.30831055 21.49547607 2.30412109 22.74095215 2.29980469 24.02416992 C1.70334378 73.20364121 -21.96423603 120.45443425 -55.50585938 155.43847656 C-56.48426224 156.46100348 -57.4571622 157.48883119 -58.42382812 158.52246094 C-85.62663904 187.59806621 -119.60297989 201.27032022 -159 204 C-161.33319845 204.02508816 -163.66690534 204.03337327 -166 204 C-167.91326147 150.03130918 -149.23235159 95.343562 -112.37817383 55.45263672 C-87.13972948 28.95074002 -52.64398893 13.18018073 -18 3 C-16.88109375 2.65839844 -15.7621875 2.31679688 -14.609375 1.96484375 C-9.56652213 0.48367795 -5.25725866 -0.35048391 0 0 Z " fill="#010101" transform="translate(540,26)"/>
</svg>
