<?xml version="1.0" encoding="UTF-8"?>
<svg version="1.1" xmlns="http://www.w3.org/2000/svg" width="512" height="512">
<path d="M0 0 C0.74330566 0.18256348 1.48661133 0.36512695 2.25244141 0.55322266 C39.18513785 9.8056192 73.19247574 30.32585723 101 56 C99.71694496 58.81106202 98.37662436 60.87710262 96.2048645 63.06929016 C95.63573334 63.64839645 95.06660217 64.22750275 94.48022461 64.82415771 C93.85784912 65.44719788 93.23547363 66.07023804 92.59423828 66.7121582 C91.9371286 67.3775914 91.28001892 68.0430246 90.60299683 68.72862244 C88.43088261 70.92481922 86.25119439 73.11329282 84.0703125 75.30078125 C82.55809861 76.82195914 81.04596385 78.3432157 79.53390503 79.86454773 C76.36503088 83.04990714 73.19179278 86.23084991 70.01611328 89.40942383 C65.93961193 93.49132411 61.87952971 97.58915195 57.82319832 101.69108295 C54.70729676 104.836654 51.58027436 107.97098403 48.45000839 111.10225487 C46.94755452 112.60892717 45.44924078 114.11973944 43.95511246 115.63466835 C41.86983242 117.74666549 39.76949092 119.84243715 37.66455078 121.93481445 C37.04622375 122.56797577 36.42789673 123.20113708 35.79083252 123.85348511 C34.04910278 125.56562805 34.04910278 125.56562805 31 128 C27.38215973 127.55676631 25.75473537 126.07909957 23.1875 123.5625 C-3.10773069 99.58365179 -39.31223089 90.41292976 -74.20556641 91.8359375 C-106.9008028 93.75549008 -136.18077303 107.00927081 -161 128 C-162.05960937 128.87591797 -162.05960937 128.87591797 -163.140625 129.76953125 C-167.92019778 133.81027694 -172.04650528 138.15351879 -176 143 C-176.76183594 143.92425781 -177.52367187 144.84851563 -178.30859375 145.80078125 C-203.14374532 176.58458968 -215.00622427 215.61361397 -211.3125 255 C-208.2525556 283.56137871 -197.1022746 310.70684511 -179 333 C-178.55817383 333.55397461 -178.11634766 334.10794922 -177.66113281 334.67871094 C-154.16134575 364.00029632 -119.59423725 383.01296742 -82.2578125 387.53125 C-44.2364792 391.33482408 -4.51800474 382.72649557 26.125 359.25 C49.47691545 339.58318749 59.49457548 318.76898583 68 289 C23.78 289 -20.44 289 -66 289 C-66 257.32 -66 225.64 -66 193 C11.22 193 88.44 193 168 193 C169.45699204 198.09947212 170.44033581 202.38128393 171.0625 207.5625 C171.21847656 208.82191406 171.37445313 210.08132812 171.53515625 211.37890625 C178.80251602 279.50067794 164.66933166 350.47339547 121.55859375 404.8828125 C117.28794611 410.15339264 112.68968482 415.10306292 108 420 C107.29254639 420.74830078 107.29254639 420.74830078 106.57080078 421.51171875 C65.6622075 464.62297588 5.00649831 486.29596192 -53.6015625 488.11157227 C-124.21690973 489.22094014 -189.89353989 466.38411191 -241.11328125 417.07421875 C-248.57980248 409.7750461 -255.71530832 402.35788013 -262 394 C-262.48001465 393.36932617 -262.9600293 392.73865234 -263.45458984 392.08886719 C-271.92590227 380.90663062 -279.32791922 369.33771333 -286 357 C-286.36963867 356.31728027 -286.73927734 355.63456055 -287.12011719 354.93115234 C-318.58703839 296.07205872 -322.71456069 226.84025238 -303.50805664 163.42529297 C-300.38991953 153.65493521 -296.29814734 144.30075502 -292 135 C-291.50113281 133.9174292 -291.50113281 133.9174292 -290.9921875 132.81298828 C-275.52014614 99.65973705 -251.34747056 68.05830687 -222 46 C-221.37464355 45.52530273 -220.74928711 45.05060547 -220.10498047 44.56152344 C-156.65752446 -3.36329997 -77.16180255 -19.43610941 0 0 Z " fill="#34A753" transform="translate(327,16)"/>
<path d="M0 0 C0.74330566 0.18256348 1.48661133 0.36512695 2.25244141 0.55322266 C39.18513785 9.8056192 73.19247574 30.32585723 101 56 C99.71694496 58.81106202 98.37662436 60.87710262 96.2048645 63.06929016 C95.63573334 63.64839645 95.06660217 64.22750275 94.48022461 64.82415771 C93.85784912 65.44719788 93.23547363 66.07023804 92.59423828 66.7121582 C91.9371286 67.3775914 91.28001892 68.0430246 90.60299683 68.72862244 C88.43088261 70.92481922 86.25119439 73.11329282 84.0703125 75.30078125 C82.55809861 76.82195914 81.04596385 78.3432157 79.53390503 79.86454773 C76.36503088 83.04990714 73.19179278 86.23084991 70.01611328 89.40942383 C65.93961193 93.49132411 61.87952971 97.58915195 57.82319832 101.69108295 C54.70729676 104.836654 51.58027436 107.97098403 48.45000839 111.10225487 C46.94755452 112.60892717 45.44924078 114.11973944 43.95511246 115.63466835 C41.86983242 117.74666549 39.76949092 119.84243715 37.66455078 121.93481445 C37.04622375 122.56797577 36.42789673 123.20113708 35.79083252 123.85348511 C34.04910278 125.56562805 34.04910278 125.56562805 31 128 C27.38215973 127.55676631 25.75473537 126.07909957 23.1875 123.5625 C-3.10773069 99.58365179 -39.31223089 90.41292976 -74.20556641 91.8359375 C-106.9008028 93.75549008 -136.18077303 107.00927081 -161 128 C-162.05960937 128.87591797 -162.05960937 128.87591797 -163.140625 129.76953125 C-167.92019778 133.81027694 -172.04650528 138.15351879 -176 143 C-176.76183594 143.92425781 -177.52367187 144.84851563 -178.30859375 145.80078125 C-203.81563145 177.4174098 -215.16003792 217.09618927 -211.06762695 257.41235352 C-210.0337644 266.18322952 -207.80896619 274.63585516 -205.42724609 283.125 C-205 285 -205 285 -205 288 C-207.16796875 289.91015625 -207.16796875 289.91015625 -210.1875 292.0625 C-211.30403535 292.87149958 -212.41989947 293.68142622 -213.53515625 294.4921875 C-214.11281738 294.90823242 -214.69047852 295.32427734 -215.28564453 295.75292969 C-217.93710537 297.68167676 -220.52973653 299.68402272 -223.125 301.6875 C-223.6511792 302.09299072 -224.1773584 302.49848145 -224.71948242 302.91625977 C-230.2719381 307.1989773 -235.80221339 311.51030665 -241.33520508 315.81811523 C-248.39646867 321.31387115 -255.48510244 326.77304313 -262.58691406 332.21630859 C-271.10793494 338.74805654 -279.56957803 345.3517212 -288 352 C-311.12483296 328.87516704 -315.17959287 271.56647376 -315.25 240.875 C-315.23861202 203.99389528 -307.45945316 168.45268907 -292 135 C-291.50113281 133.9174292 -291.50113281 133.9174292 -290.9921875 132.81298828 C-275.52014614 99.65973705 -251.34747056 68.05830687 -222 46 C-221.37464355 45.52530273 -220.74928711 45.05060547 -220.10498047 44.56152344 C-156.65752446 -3.36329997 -77.16180255 -19.43610941 0 0 Z " fill="#E94134" transform="translate(327,16)"/>
<path d="M0 0 C77.22 0 154.44 0 234 0 C235.45699204 5.09947212 236.44033581 9.38128393 237.0625 14.5625 C237.21847656 15.82191406 237.37445313 17.08132812 237.53515625 18.37890625 C244.8038158 86.51286162 230.65598199 157.43262699 187.57421875 211.8671875 C180.93427266 220.0642099 173.55002446 227.64467531 166 235 C161.11805106 232.29749255 156.86897636 228.8804758 152.5 225.4375 C150.88172439 224.17029961 149.26323357 222.90337401 147.64453125 221.63671875 C146.85256348 221.01587402 146.0605957 220.3950293 145.24462891 219.75537109 C142.23794236 217.40404672 139.21568262 215.07353785 136.1875 212.75 C135.15367187 211.9559375 134.11984375 211.161875 133.0546875 210.34375 C132.04664063 209.5703125 131.03859375 208.796875 130 208 C121.8726928 201.76421442 113.76439532 195.50524494 105.69311523 189.19702148 C102.14144523 186.42455021 98.57994757 183.67245522 94.9609375 180.98828125 C94.35121094 180.53259766 93.74148438 180.07691406 93.11328125 179.60742188 C91.48439422 178.39399255 89.84792522 177.19075989 88.2109375 175.98828125 C87.48132813 175.33214844 86.75171875 174.67601562 86 174 C86 173.01 86 172.02 86 171 C87.94921875 169.1953125 87.94921875 169.1953125 90.6875 167.125 C115.03209196 147.72442543 125.35865387 126.24471145 134 96 C89.78 96 45.56 96 0 96 C0 64.32 0 32.64 0 0 Z " fill="#4185F3" transform="translate(261,209)"/>
<path d="M0 0 C6.48971206 4.83547173 12.90725553 9.76182966 19.31640625 14.703125 C20.90754645 15.92878288 22.50059029 17.15196831 24.09375 18.375 C31.19660238 23.82769476 38.27001458 29.31727667 45.33544922 34.81835938 C53.02226726 40.80080126 60.7406576 46.74130944 68.4765625 52.66015625 C69.05559326 53.10391602 69.63462402 53.54767578 70.23120117 54.00488281 C71.82917349 55.22948429 73.42821983 56.45268394 75.02734375 57.67578125 C78.07423663 60.0580431 81.04176844 62.50908967 84 65 C83.73445313 66.08796875 83.46890625 67.1759375 83.1953125 68.296875 C75.99553041 98.10703658 75.2614275 125.50100941 83.57275391 155.125 C84 157 84 157 84 160 C81.83203125 161.91015625 81.83203125 161.91015625 78.8125 164.0625 C77.69596465 164.87149958 76.58010053 165.68142622 75.46484375 166.4921875 C74.88718262 166.90823242 74.30952148 167.32427734 73.71435547 167.75292969 C71.06289463 169.68167676 68.47026347 171.68402272 65.875 173.6875 C65.3488208 174.09299072 64.8226416 174.49848145 64.28051758 174.91625977 C58.7280619 179.1989773 53.19778661 183.51030665 47.66479492 187.81811523 C40.60353133 193.31387115 33.51489756 198.77304313 26.41308594 204.21630859 C17.89206506 210.74805654 9.43042197 217.3517212 1 224 C-22.12483296 200.87516704 -26.17959287 143.56647376 -26.25 112.875 C-26.23885647 76.78557463 -18.7715222 42.10492895 -3.99462891 9.22412109 C-2.62642739 6.16464248 -1.31114155 3.08430442 0 0 Z " fill="#F9BA08" transform="translate(38,144)"/>
</svg>
